<svg xmlns="http://www.w3.org/2000/svg" width="246" height="183" viewBox="0 0 246 183">
  <g fill="#ffffff" fill-rule="evenodd">
    <path fill-rule="nonzero" d="M17.7666667,165.377778 L228.233333,165.377778 L228.233333,17.6222222 L17.7666667,17.6222222 L17.7666667,165.377778 Z M0,0 L246,0 L246,183 L0,183 L0,0 Z"/>
    <path fill-rule="nonzero" d="M181.888889,40.0710872 L165.888889,40.0710872 L165.888889,80.0710872 L205.888889,80.0710872 L205.888889,64.0710872 L181.888889,64.0710872 L181.888889,40.0710872 Z M39.8888889,103.071087 L39.8888889,119.071087 L63.8888889,119.071087 L63.8888889,143.071087 L79.8888889,143.071087 L79.8888889,103.071087 L39.8888889,103.071087 Z"/>
    <polygon points="30 141.571 41.428 153 70 124.429 58.571 113"/>
    <polygon points="176 58.571 187.428 70 216 41.429 204.571 30"/>
  </g>
</svg>
