<svg xmlns="http://www.w3.org/2000/svg" width="246" height="183" viewBox="0 0 246 183">
  <g fill="#ffffff" fill-rule="evenodd">
    <path fill-rule="nonzero" d="M17.7666667,165.377778 L228.233333,165.377778 L228.233333,17.6222222 L17.7666667,17.6222222 L17.7666667,165.377778 Z M0,0 L246,0 L246,183 L0,183 L0,0 Z"/>
    <path fill-rule="nonzero" d="M45.8888889,113.071087 L29.8888889,113.071087 L29.8888889,153.071087 L69.8888889,153.071087 L69.8888889,137.071087 L45.8888889,137.071087 L45.8888889,113.071087 Z M175.888889,30.0710872 L175.888889,46.0710872 L199.888889,46.0710872 L199.888889,70.0710872 L215.888889,70.0710872 L215.888889,30.0710872 L175.888889,30.0710872 Z"/>
    <polygon points="40 131.571 51.428 143 80 114.429 68.571 103"/>
    <polygon points="166 68.571 177.428 80 206 51.429 194.571 40"/>
  </g>
</svg>
